<svg width="1014" height="674" viewBox="0 0 1014 674" fill="none" xmlns="http://www.w3.org/2000/svg">
<path d="M37.907 165.318C76.2593 114.671 155.611 65.8144 230.346 38.6025C305.08 11.3905 406.283 -3.92235 486.313 2.04582C566.344 8.01405 628.911 50.5787 710.527 74.4117C792.142 98.2448 925.75 101.193 976.007 145.044C1026.26 188.896 1012.24 273.494 1012.07 337.521C1011.89 401.548 1026.88 487.299 974.974 529.207C923.071 571.116 781.539 564.889 700.645 588.974C619.75 613.059 556.264 677.936 489.606 673.716C422.948 669.495 375.286 589.553 300.698 563.649C226.109 537.746 92.1513 555.156 42.0736 518.295C-8.00406 481.434 0.925967 401.311 0.231565 342.481C-0.462898 283.652 -0.445343 215.964 37.907 165.318Z" fill="#7BA0FD" fill-opacity="0.33"/>
</svg>
