<svg width="1278" height="743" viewBox="0 0 1278 743" fill="none" xmlns="http://www.w3.org/2000/svg">
<path d="M48.0056 182.542C96.3713 126.669 196.398 72.7369 290.59 42.6747C384.781 12.6125 512.316 -4.34989 613.155 2.16905C713.994 8.68793 792.801 55.5723 895.623 81.7882C998.446 108.004 1166.8 111.151 1230.09 159.464C1293.39 207.777 1275.65 301.067 1275.38 371.665C1275.11 442.263 1293.93 536.802 1228.49 583.052C1163.06 629.301 984.726 622.544 882.774 649.163C780.823 675.782 700.776 747.367 616.786 742.764C532.795 738.162 472.8 650.053 378.833 621.549C284.866 593.044 116.056 612.345 52.9834 571.739C-10.0895 531.134 1.22475 442.782 0.395165 377.916C-0.434421 313.049 -0.360096 238.416 48.0056 182.542Z" fill="#7BA0FD" fill-opacity="0.33"/>
</svg>
