<svg width="416" height="475" viewBox="0 0 416 475" fill="none" xmlns="http://www.w3.org/2000/svg">
<g filter="url(#filter0_d_208_4)">
<path d="M304.053 49.3066C325.216 79.3371 333.408 112.78 343.648 141.446C353.889 170.794 366.177 194.682 375.052 224.03C383.244 253.378 388.705 288.186 380.513 319.581C371.638 351.659 349.11 381.007 319.072 387.15C289.717 393.975 252.852 378.277 211.209 386.467C169.565 394.658 123.826 426.736 89.6921 422.641C56.2409 417.863 34.3952 376.912 27.5684 337.327C20.059 297.058 26.8858 258.155 22.7897 216.522C18.011 174.889 2.30935 131.208 20.7417 110.05C39.174 88.8922 91.0575 90.9398 129.287 71.1469C167.517 51.3541 192.094 9.72087 220.766 1.53072C249.439 -6.65942 282.89 19.276 304.053 49.3066Z" fill="url(#paint0_linear_208_4)" fill-opacity="0.48" shape-rendering="crispEdges"/>
</g>
<g clip-path="url(#clip0_208_4)">
<path d="M250.097 98.7053C239.494 91.5442 229.783 88.8855 223.907 87.7635C214.809 86.034 203.301 83.8399 194.659 90.6079C193.204 91.7443 187.97 96.161 187.022 103.079C186.231 108.818 188.726 113.842 193.789 121.018C210.909 145.288 229.027 153.886 238.532 166.086C238.995 166.679 240.321 168.416 242.681 169.802C247.78 172.804 254.596 172.325 259.709 169.802C264.978 167.201 267.516 162.884 268.436 161.269C269.627 159.182 271.745 154.694 271.274 144.424C271.003 138.563 269.827 129.194 264.942 118.173" stroke="#08094A" stroke-opacity="0.6" stroke-width="5" stroke-miterlimit="10" stroke-linecap="round"/>
<path d="M242.682 107.675C245.491 109.683 250.675 113.957 254.468 121.239C258.561 129.094 258.896 136.348 258.832 139.835" stroke="#08094A" stroke-opacity="0.6" stroke-width="5" stroke-miterlimit="10" stroke-linecap="round"/>
<path d="M258.397 110.412C259.905 110.412 261.128 109.186 261.128 107.675C261.128 106.163 259.905 104.937 258.397 104.937C256.889 104.937 255.666 106.163 255.666 107.675C255.666 109.186 256.889 110.412 258.397 110.412Z" fill="#08094A" fill-opacity="0.6"/>
<path d="M191.585 117.766C190.059 121.039 187.414 125.213 182.879 126.928C179.806 128.086 178.573 127.271 174.587 127.8C168.69 128.593 163.235 132.345 160.183 136.548C156.946 141.007 155.948 146.603 155.164 150.984C154.415 155.172 154.821 156.059 153.638 157.545C151.171 160.64 147.47 159.253 141.195 163.013C137.566 165.192 137.003 166.736 136.832 167.386C136.197 169.752 137.373 172.504 139.235 173.947C142.08 176.163 146.051 174.955 148.618 174.169C152.818 172.882 155.477 170.552 158.002 168.265C161.645 164.971 164.697 162.205 165.859 157.767C167 153.407 165.061 152.257 166.515 147.704C166.914 146.453 168.255 142.251 171.97 140.05C174.836 138.349 176.077 139.642 182.23 138.52C185.282 137.963 189.147 137.241 192.705 134.582C195.892 132.203 197.589 129.194 198.473 127.243" stroke="#08094A" stroke-opacity="0.6" stroke-width="5" stroke-miterlimit="10" stroke-linecap="round"/>
<path d="M239.915 167.394C236.649 168.923 232.485 171.574 230.774 176.12C229.619 179.2 230.432 180.437 229.904 184.432C229.113 190.342 225.369 195.809 221.177 198.868C216.727 202.113 211.144 203.113 206.773 203.9C202.595 204.65 201.711 204.243 200.228 205.429C197.14 207.902 198.524 211.611 194.773 217.9C192.598 221.538 191.058 222.103 190.409 222.274C188.049 222.91 185.304 221.731 183.864 219.866C181.653 217.014 182.858 213.033 183.643 210.46C184.926 206.251 187.25 203.585 189.532 201.055C192.819 197.403 195.579 194.344 200.007 193.179C204.356 192.036 205.504 193.98 210.046 192.522C211.294 192.122 215.487 190.778 217.683 187.055C219.38 184.181 218.089 182.938 219.209 176.77C219.765 173.711 220.485 169.838 223.137 166.272C225.512 163.077 228.514 161.376 230.46 160.49" stroke="#08094A" stroke-opacity="0.6" stroke-width="5" stroke-miterlimit="10" stroke-linecap="round"/>
<path d="M198.595 129.115C192.584 132.967 190.223 136.991 189.211 140.05C187.764 144.424 188.983 147.047 186.594 152.735C185.639 155.015 184.419 157.903 181.574 160.175C179.414 161.898 176.605 162.505 171.1 163.677C164.854 164.999 162.907 164.699 159.734 166.686C159.306 166.95 157.417 168.173 155.549 170.388C155.057 170.974 152.903 173.604 151.456 178.55C150.208 182.809 151.149 183.102 150.144 186.862C149.36 189.813 147.998 194.952 144.033 197.146C140.112 199.318 137.316 196.567 133.937 199.183C131.926 200.741 130.314 203.728 131.156 206.115C131.855 208.102 134.001 208.96 135.085 209.396C139.413 211.146 143.72 209.689 145.78 208.96C152.162 206.701 160.768 200.491 161.495 192.336C161.845 188.42 160.126 186.79 161.495 182.709C161.716 182.045 163.171 177.914 167.171 175.491C170.665 173.375 172.754 174.633 177.432 173.74C183.15 172.646 188.84 169.102 192.056 164.549C194.616 160.933 195.635 156.63 197.076 150.548C197.946 146.875 198.267 144.152 200.57 141.579C202.516 139.407 204.948 138.385 206.68 137.863" stroke="#08094A" stroke-opacity="0.6" stroke-width="5" stroke-miterlimit="10" stroke-linecap="round"/>
<path d="M228.072 157.652C224.442 163.806 220.506 166.307 217.49 167.429C213.176 169.03 210.524 167.894 204.927 170.488C202.688 171.524 199.85 172.839 197.682 175.77C196.042 177.992 195.529 180.822 194.552 186.383C193.447 192.686 193.818 194.63 191.935 197.875C191.686 198.311 190.538 200.248 188.384 202.191C187.821 202.706 185.268 204.95 180.384 206.573C176.184 207.966 175.856 207.037 172.141 208.166C169.225 209.052 164.148 210.596 162.102 214.641C160.07 218.644 162.908 221.352 160.419 224.826C158.936 226.898 156.013 228.606 153.602 227.849C151.592 227.213 150.672 225.097 150.194 224.025C148.305 219.744 149.609 215.385 150.265 213.298C152.298 206.823 158.194 197.989 166.302 196.989C170.195 196.503 171.877 198.168 175.899 196.66C176.555 196.417 180.619 194.823 182.901 190.728C184.89 187.155 183.564 185.111 184.291 180.394C185.183 174.633 188.527 168.801 192.955 165.428C196.477 162.741 200.727 161.576 206.745 159.918C210.374 158.917 213.084 158.503 215.565 156.116C217.668 154.093 218.603 151.628 219.066 149.87" stroke="#08094A" stroke-opacity="0.6" stroke-width="5" stroke-miterlimit="10" stroke-linecap="round"/>
</g>
<defs>
<filter id="filter0_d_208_4" x="0.700001" y="0" width="415.165" height="474.3" filterUnits="userSpaceOnUse" color-interpolation-filters="sRGB">
<feFlood flood-opacity="0" result="BackgroundImageFix"/>
<feColorMatrix in="SourceAlpha" type="matrix" values="0 0 0 0 0 0 0 0 0 0 0 0 0 0 0 0 0 0 127 0" result="hardAlpha"/>
<feOffset dx="10" dy="30"/>
<feGaussianBlur stdDeviation="10.65"/>
<feComposite in2="hardAlpha" operator="out"/>
<feColorMatrix type="matrix" values="0 0 0 0 0 0 0 0 0 0 0 0 0 0 0 0 0 0 0.25 0"/>
<feBlend mode="normal" in2="BackgroundImageFix" result="effect1_dropShadow_208_4"/>
<feBlend mode="normal" in="SourceGraphic" in2="effect1_dropShadow_208_4" result="shape"/>
</filter>
<linearGradient id="paint0_linear_208_4" x1="198.283" y1="0" x2="198.283" y2="423" gradientUnits="userSpaceOnUse">
<stop stop-color="#A5C3FF"/>
<stop offset="0.51" stop-color="#9385FF"/>
<stop offset="1" stop-color="#421FFF" stop-opacity="0.68"/>
</linearGradient>
<clipPath id="clip0_208_4">
<rect width="143.983" height="145.61" fill="white" transform="translate(129.138 84.2115)"/>
</clipPath>
</defs>
</svg>
