<svg width="424" height="477" viewBox="0 0 424 477" fill="none" xmlns="http://www.w3.org/2000/svg">
<g filter="url(#filter0_d_208_3)">
<path d="M288.122 44.5188C316.807 60.8061 352.547 65.6923 372.297 87.4088C392.048 109.125 395.339 147.672 389.226 182.418C383.113 216.622 368.065 247.025 350.195 271.999C332.326 297.516 342.042 334.811 319 362.5C296.428 389.646 240.627 407.184 209.12 420.214C178.084 432.701 139.993 422.928 117.891 395.24C95.3195 367.008 88.736 321.404 68.5152 283.4C48.2944 245.396 14.4364 216.079 12.0851 184.59C10.2041 153.644 39.8299 121.069 68.5152 99.8958C96.7302 78.7222 124.005 68.4069 148.458 48.8621C172.911 29.3172 194.542 0.542912 215.704 0C237.335 0 258.967 27.6885 288.122 44.5188Z" fill="url(#paint0_linear_208_3)" fill-opacity="0.48" shape-rendering="crispEdges"/>
</g>
<g clip-path="url(#clip0_208_3)">
<path d="M276.013 144.837C275.099 131.728 270.571 119.189 262.888 108.431C262.042 107.246 260.809 106.401 259.415 105.977C258.761 105.778 258.082 105.677 257.398 105.677H231.156C229.823 105.677 228.743 106.758 228.743 108.091C228.743 109.424 229.823 110.505 231.156 110.505H250.328C255.421 110.505 260.321 112.869 262.822 117.305C266.323 123.516 268.792 130.217 270.145 137.19C270.677 139.926 268.344 141.858 266.227 140.044C264.254 138.354 261.798 136.251 257.16 136.251C252.498 136.251 250.036 138.36 248.057 140.055C246.273 141.583 244.984 142.687 242.131 142.687C239.254 142.687 237.959 141.578 236.169 140.045C234.195 138.355 231.739 136.251 227.102 136.251C222.464 136.251 220.008 138.354 218.035 140.045C216.244 141.579 214.949 142.687 212.073 142.687C209.217 142.687 207.929 141.582 206.146 140.051C204.174 138.358 201.719 136.251 197.075 136.251C192.437 136.251 189.982 138.354 188.008 140.045C186.217 141.579 184.923 142.687 182.046 142.687C179.191 142.687 177.903 141.582 176.12 140.051C174.147 138.358 171.692 136.251 167.049 136.251C162.411 136.251 159.955 138.354 157.982 140.045C156.191 141.579 154.897 142.687 152.02 142.687C149.164 142.687 147.876 141.582 146.093 140.051C142.828 137.248 139.909 132.891 141.282 128.813C142.62 124.84 144.333 120.986 146.396 117.317C148.893 112.874 153.795 110.505 158.891 110.505H218.285C219.618 110.505 220.698 109.424 220.698 108.091C220.698 106.758 219.618 105.677 218.285 105.677H151.815C151.131 105.677 150.451 105.778 149.797 105.977C148.403 106.401 147.169 107.247 146.324 108.434C140.009 117.293 135.75 127.527 133.966 138.171C133.325 142.018 133 145.973 133 149.929C133 189.412 165.122 221.535 204.606 221.535C244.09 221.535 276.212 189.412 276.212 149.929C276.212 148.2 276.144 146.479 276.013 144.837ZM204.606 216.707C167.784 216.707 137.827 186.75 137.827 149.928C137.827 148.766 137.858 147.604 137.918 146.445C138.069 143.549 140.749 141.825 142.949 143.714C144.922 145.407 147.377 147.515 152.02 147.515C156.682 147.515 159.144 145.405 161.123 143.711C162.907 142.182 164.196 141.078 167.049 141.078C169.905 141.078 171.193 142.184 172.976 143.714C174.949 145.407 177.404 147.515 182.047 147.515C186.708 147.515 189.171 145.405 191.149 143.71C192.934 142.182 194.223 141.078 197.076 141.078C199.931 141.078 201.219 142.183 203.002 143.714C204.975 145.407 207.43 147.514 212.073 147.514C216.735 147.514 219.198 145.405 221.176 143.71C222.961 142.182 224.25 141.078 227.103 141.078C229.955 141.078 231.245 142.182 233.029 143.71C235.007 145.405 237.47 147.514 242.132 147.514C246.77 147.514 249.225 145.411 251.199 143.721C252.99 142.186 254.284 141.078 257.161 141.078C260.014 141.078 261.303 142.182 263.088 143.71C264.544 144.958 266.263 146.43 268.929 147.12C270.269 147.467 271.386 148.544 271.386 149.928C271.385 186.75 241.428 216.707 204.606 216.707Z" fill="#08094A" fill-opacity="0.6"/>
<path d="M158.746 124.987H153.919C152.585 124.987 151.505 126.068 151.505 127.401C151.505 128.734 152.585 129.814 153.919 129.814H158.746C160.079 129.814 161.16 128.734 161.16 127.401C161.16 126.068 160.079 124.987 158.746 124.987Z" fill="#08094A" fill-opacity="0.6"/>
<path d="M168.401 118.551H163.573C162.24 118.551 161.16 119.631 161.16 120.964C161.16 122.297 162.24 123.378 163.573 123.378H168.401C169.734 123.378 170.814 122.297 170.814 120.964C170.814 119.631 169.734 118.551 168.401 118.551Z" fill="#08094A" fill-opacity="0.6"/>
<path d="M162.465 176.298C157.902 169.496 155.534 163.082 154.509 159.779C154.114 158.506 152.808 157.689 151.505 157.972C150.202 158.257 149.388 159.54 149.771 160.817C150.818 164.31 153.322 171.286 158.347 178.823C164.587 188.184 176.006 200.111 195.32 204.857C196.615 205.176 197.898 204.334 198.17 203.029C198.442 201.724 197.601 200.45 196.307 200.13C182.098 196.615 170.721 188.606 162.465 176.298Z" fill="#08094A" fill-opacity="0.6"/>
<path d="M211.847 200.616H207.02C205.687 200.616 204.606 201.697 204.606 203.03C204.606 204.363 205.687 205.443 207.02 205.443H211.847C213.18 205.443 214.261 204.363 214.261 203.03C214.261 201.697 213.18 200.616 211.847 200.616Z" fill="#08094A" fill-opacity="0.6"/>
<path d="M240.811 173.261H235.984C234.651 173.261 233.57 174.341 233.57 175.674C233.57 177.007 234.651 178.088 235.984 178.088H240.811C242.144 178.088 243.225 177.007 243.225 175.674C243.225 174.341 242.144 173.261 240.811 173.261Z" fill="#08094A" fill-opacity="0.6"/>
<path d="M250.466 163.606H245.638C244.305 163.606 243.225 164.687 243.225 166.02C243.225 167.353 244.305 168.434 245.638 168.434H250.466C251.799 168.434 252.879 167.353 252.879 166.02C252.879 164.687 251.799 163.606 250.466 163.606Z" fill="#08094A" fill-opacity="0.6"/>
<path d="M216.325 172.716C214.362 170.753 214.374 167.567 216.352 165.618L222.184 159.875C223.134 158.94 223.145 157.411 222.21 156.462C221.274 155.512 219.746 155.5 218.796 156.436L213.008 162.137C211.044 164.072 207.908 164.002 205.641 162.434C202.959 160.579 199.4 158.874 195.133 158.556C188.462 158.057 181.837 161.045 175.447 167.435C174.603 168.28 174.503 169.615 175.214 170.576C175.467 170.92 181.543 178.995 191.358 179.727C191.834 179.763 192.311 179.78 192.788 179.78C197.093 179.78 201.372 178.324 205.575 175.441C207.765 173.938 210.758 173.975 212.636 175.853L218.893 182.11C219.835 183.053 221.364 183.053 222.306 182.11C223.249 181.168 223.249 179.64 222.306 178.697L216.325 172.716ZM191.757 174.916C189.021 174.72 186.618 173.736 184.661 172.556C182.201 171.071 182.29 167.609 184.742 166.109C188.104 164.051 191.447 163.131 194.734 163.367C197.47 163.563 199.873 164.547 201.829 165.727C204.29 167.212 204.201 170.674 201.75 172.174C198.387 174.232 195.045 175.151 191.757 174.916Z" fill="#08094A" fill-opacity="0.6"/>
</g>
<defs>
<filter id="filter0_d_208_3" x="0.700001" y="0" width="422.6" height="476.867" filterUnits="userSpaceOnUse" color-interpolation-filters="sRGB">
<feFlood flood-opacity="0" result="BackgroundImageFix"/>
<feColorMatrix in="SourceAlpha" type="matrix" values="0 0 0 0 0 0 0 0 0 0 0 0 0 0 0 0 0 0 127 0" result="hardAlpha"/>
<feOffset dx="10" dy="30"/>
<feGaussianBlur stdDeviation="10.65"/>
<feComposite in2="hardAlpha" operator="out"/>
<feColorMatrix type="matrix" values="0 0 0 0 0 0 0 0 0 0 0 0 0 0 0 0 0 0 0.25 0"/>
<feBlend mode="normal" in2="BackgroundImageFix" result="effect1_dropShadow_208_3"/>
<feBlend mode="normal" in="SourceGraphic" in2="effect1_dropShadow_208_3" result="shape"/>
</filter>
<linearGradient id="paint0_linear_208_3" x1="202" y1="0" x2="202" y2="425.567" gradientUnits="userSpaceOnUse">
<stop stop-color="#A5C3FF"/>
<stop offset="0.51" stop-color="#9385FF"/>
<stop offset="1" stop-color="#421FFF" stop-opacity="0.68"/>
</linearGradient>
<clipPath id="clip0_208_3">
<rect width="143.212" height="143.212" fill="white" transform="translate(133 92)"/>
</clipPath>
</defs>
</svg>
