<svg width="430" height="459" viewBox="0 0 430 459" fill="none" xmlns="http://www.w3.org/2000/svg">
<g filter="url(#filter0_d_208_5)">
<path d="M306.837 21.229C324.322 40.8389 318.494 92.2488 327.501 128.289C335.978 164.329 359.291 184.999 376.775 215.739C394.259 246.479 405.916 287.289 391.08 312.199C375.715 337.108 333.329 345.588 298.36 362.018C262.861 378.448 234.25 402.298 202.99 406.538C171.73 411.308 137.821 396.468 104.442 378.978C70.5324 362.018 36.6232 342.408 27.0863 312.729C17.0195 283.579 30.7951 244.889 28.6758 204.609C26.5564 164.329 8.01234 122.459 12.7808 84.2989C17.5493 46.6689 45.6304 11.689 81.6589 2.67898C117.687 -6.33101 161.663 10.099 204.58 12.219C246.966 14.339 288.823 2.14898 306.837 21.229Z" fill="url(#paint0_linear_208_5)" fill-opacity="0.48" shape-rendering="crispEdges"/>
</g>
<path d="M272.508 190.519C272.498 190.319 272.492 190.115 272.479 189.915C272.452 189.466 272.416 189.031 272.379 188.598C272.367 188.459 272.358 188.317 272.345 188.178C272.307 187.776 272.262 187.388 272.216 187C272.198 186.849 272.185 186.693 272.166 186.544C272.165 186.536 272.162 186.529 272.161 186.521C271.317 179.938 269.357 175.516 267.512 172.682C270.465 171.656 272.589 168.847 272.589 165.551C272.589 161.39 269.204 158.004 265.043 158.004H198.556C194.395 158.004 191.009 161.39 191.009 165.551C191.009 168.847 193.134 171.657 196.086 172.682C194.242 175.515 192.284 179.935 191.439 186.514C191.437 186.524 191.433 186.534 191.432 186.544C191.408 186.733 191.391 186.929 191.369 187.121C191.329 187.464 191.289 187.806 191.255 188.161C191.239 188.337 191.227 188.516 191.212 188.694C191.179 189.093 191.145 189.491 191.12 189.904C191.106 190.132 191.099 190.363 191.087 190.592C191.069 190.953 191.049 191.31 191.038 191.682C191.019 192.294 191.009 192.911 191.009 193.534C191.009 212.939 209.486 222.614 210.272 223.017C210.638 223.203 211.043 223.301 211.454 223.301H252.145C252.556 223.301 252.961 223.203 253.326 223.017C254.113 222.614 272.589 212.939 272.589 193.534C272.589 192.913 272.579 192.297 272.561 191.686C272.549 191.288 272.528 190.905 272.508 190.519ZM252.72 173.097H261.201C262.335 174.163 265.11 177.38 266.53 184.274H256.411C254.978 184.274 253.815 185.437 253.815 186.87C253.815 188.303 254.978 189.465 256.411 189.465H267.246C267.246 189.47 267.246 189.475 267.247 189.48C267.292 190.069 267.324 190.668 267.349 191.272C267.354 191.396 267.359 191.52 267.364 191.646C267.385 192.269 267.399 192.898 267.399 193.534C267.399 208.09 254.247 216.499 251.472 218.11H212.124C209.34 216.506 196.2 208.151 196.2 193.534C196.2 192.899 196.214 192.272 196.235 191.65C196.24 191.519 196.245 191.39 196.25 191.26C196.275 190.683 196.306 190.112 196.347 189.55C196.35 189.522 196.351 189.493 196.353 189.465H239.869C241.302 189.465 242.464 188.303 242.464 186.87C242.464 185.437 241.302 184.274 239.869 184.274H197.068C198.494 177.353 201.282 174.14 202.392 173.097H215.102C216.535 173.097 217.697 171.935 217.697 170.502C217.697 169.069 216.535 167.907 215.102 167.907H201.475H198.556C197.257 167.907 196.201 166.85 196.201 165.551C196.201 164.252 197.257 163.196 198.556 163.196H265.044C266.343 163.196 267.399 164.252 267.399 165.551C267.399 166.851 266.343 167.907 265.044 167.907H262.125H252.721C251.288 167.907 250.126 169.069 250.126 170.502C250.126 171.935 251.287 173.097 252.72 173.097Z" fill="#08094A" fill-opacity="0.6"/>
<path d="M237.363 167.906H226.732C225.298 167.906 224.136 169.069 224.136 170.502C224.136 171.934 225.298 173.097 226.732 173.097H237.363C238.796 173.097 239.958 171.934 239.958 170.502C239.958 169.069 238.796 167.906 237.363 167.906Z" fill="#08094A" fill-opacity="0.6"/>
<path d="M185.108 123.593C185.108 119.432 181.723 116.047 177.562 116.047H111.075C106.914 116.047 103.528 119.432 103.528 123.593C103.528 126.89 105.653 129.7 108.606 130.724C106.762 133.558 104.803 137.978 103.958 144.557C103.956 144.567 103.952 144.576 103.951 144.586C103.927 144.776 103.91 144.972 103.888 145.163C103.848 145.507 103.808 145.849 103.774 146.204C103.758 146.379 103.746 146.559 103.731 146.736C103.698 147.135 103.664 147.534 103.639 147.947C103.625 148.175 103.617 148.406 103.606 148.634C103.588 148.995 103.568 149.353 103.557 149.725C103.538 150.337 103.528 150.954 103.528 151.577C103.528 170.982 122.005 180.658 122.792 181.06C123.157 181.247 123.562 181.345 123.973 181.345H164.663C165.075 181.345 165.48 181.247 165.845 181.06C166.632 180.658 185.108 170.982 185.108 151.577C185.108 150.956 185.099 150.341 185.08 149.731C185.067 149.329 185.046 148.944 185.026 148.556C185.017 148.358 185.01 148.158 184.999 147.961C184.971 147.518 184.936 147.09 184.899 146.663C184.887 146.515 184.877 146.365 184.863 146.218C184.828 145.846 184.786 145.488 184.744 145.129C184.723 144.949 184.708 144.766 184.685 144.588C184.684 144.578 184.68 144.569 184.679 144.559C183.835 137.979 181.875 133.559 180.031 130.725C182.984 129.699 185.108 126.889 185.108 123.593ZM165.239 131.139H173.72C174.854 132.206 177.629 135.422 179.049 142.317H168.929C167.497 142.317 166.334 143.479 166.334 144.912C166.334 146.345 167.497 147.507 168.929 147.507H179.765C179.765 147.513 179.765 147.517 179.766 147.522C179.811 148.112 179.843 148.711 179.868 149.316C179.873 149.439 179.878 149.562 179.883 149.687C179.904 150.311 179.918 150.94 179.918 151.576C179.918 166.132 166.766 174.543 163.991 176.154H124.642C121.859 174.549 108.719 166.193 108.719 151.576C108.719 150.941 108.732 150.314 108.754 149.693C108.758 149.562 108.764 149.432 108.769 149.303C108.793 148.726 108.824 148.155 108.866 147.592C108.868 147.565 108.869 147.535 108.872 147.507H152.388C153.821 147.507 154.984 146.345 154.984 144.912C154.984 143.479 153.821 142.317 152.388 142.317H109.587C111.012 135.396 113.8 132.182 114.91 131.139H127.62C129.053 131.139 130.215 129.977 130.215 128.545C130.215 127.111 129.053 125.949 127.62 125.949H113.993H111.075C109.776 125.949 108.719 124.893 108.719 123.594C108.719 122.294 109.776 121.238 111.075 121.238H177.562C178.861 121.238 179.918 122.295 179.918 123.594C179.918 124.893 178.861 125.949 177.562 125.949H174.644H165.239C163.806 125.949 162.644 127.111 162.644 128.545C162.644 129.977 163.806 131.139 165.239 131.139Z" fill="#08094A" fill-opacity="0.6"/>
<path d="M149.882 125.949H139.25C137.817 125.949 136.655 127.111 136.655 128.544C136.655 129.977 137.817 131.139 139.25 131.139H149.882C151.315 131.139 152.477 129.977 152.477 128.544C152.477 127.111 151.315 125.949 149.882 125.949Z" fill="#08094A" fill-opacity="0.6"/>
<path d="M215.989 70.066C224.545 77.6059 229.452 88.4648 229.452 99.8605V101.798C229.452 103.232 230.614 104.394 232.047 104.394C233.48 104.394 234.643 103.232 234.643 101.798V99.8605C234.643 86.9756 229.094 74.6961 219.419 66.1715C218.346 65.2248 216.704 65.3279 215.756 66.4029C214.809 67.4783 214.912 69.1177 215.989 70.066Z" fill="#08094A" fill-opacity="0.6"/>
<path d="M208.286 64.431C209.247 64.431 210.171 63.8954 210.62 62.974C211.25 61.6859 210.715 60.132 209.428 59.5032C203.273 56.4969 196.653 54.9728 189.755 54.9728C188.669 54.9728 187.576 55.0122 186.502 55.0896C185.072 55.1935 183.997 56.4359 184.1 57.865C184.203 59.2952 185.449 60.3607 186.875 60.2672C187.825 60.1986 188.794 60.1638 189.755 60.1638C195.858 60.1638 201.71 61.5108 207.149 64.1667C207.517 64.3463 207.904 64.431 208.286 64.431Z" fill="#08094A" fill-opacity="0.6"/>
<path d="M163.495 69.3032C164.06 69.3032 164.629 69.1201 165.107 68.7412C168.483 66.0643 172.239 63.9678 176.273 62.5112C177.622 62.0246 178.32 60.5373 177.833 59.1887C177.347 57.8405 175.859 57.1432 174.511 57.629C169.948 59.2768 165.698 61.6472 161.881 64.6747C160.758 65.5651 160.57 67.1976 161.461 68.3209C161.972 68.9668 162.731 69.3032 163.495 69.3032Z" fill="#08094A" fill-opacity="0.6"/>
<path d="M150.202 84.6363C150.551 84.7964 150.919 84.8723 151.28 84.8723C152.264 84.8723 153.205 84.3095 153.641 83.3559C154.812 80.7981 156.264 78.3549 157.956 76.0949C158.814 74.9482 158.582 73.3211 157.434 72.4621C156.287 71.6035 154.66 71.838 153.801 72.9839C151.887 75.5397 150.245 78.3032 148.922 81.197C148.325 82.5004 148.898 84.0394 150.202 84.6363Z" fill="#08094A" fill-opacity="0.6"/>
<path d="M147.464 102.456C148.897 102.456 150.059 101.293 150.059 99.8605C150.059 97.5744 150.255 95.2833 150.641 93.0501C150.885 91.6371 149.937 90.2947 148.525 90.0506C147.111 89.81 145.77 90.7544 145.525 92.1666C145.089 94.691 144.869 97.2798 144.869 99.8605C144.869 101.293 146.031 102.456 147.464 102.456Z" fill="#08094A" fill-opacity="0.6"/>
<path d="M122.155 91.4479C123.237 91.9364 124.3 92.4777 125.313 93.0551C126.557 93.7635 128.143 93.3313 128.853 92.0858C129.563 90.8403 129.128 89.2549 127.883 88.5453C126.73 87.8887 125.523 87.273 124.294 86.7174C123.254 86.2474 122.497 85.3516 122.216 84.2597C122.069 83.6854 121.942 82.5605 122.753 81.4801C122.845 81.3579 122.944 81.2345 123.051 81.1066C123.556 80.5043 124.315 79.5974 126.87 81.7104C128.514 83.0682 129.784 84.9735 130.543 87.219C131.342 89.5848 132.206 93.1179 131.781 96.5136C131.603 97.9358 132.612 99.2338 134.034 99.4112C134.143 99.425 134.252 99.4315 134.36 99.4315C135.65 99.4315 136.768 98.4714 136.932 97.1584C137.478 92.7873 136.433 88.4373 135.46 85.5581C134.392 82.3966 132.565 79.6833 130.178 77.7098C126.087 74.3283 121.936 74.3544 119.075 77.7699C118.904 77.9718 118.745 78.1734 118.6 78.3684C117.059 80.4196 116.544 83.0379 117.188 85.5497C117.862 88.1752 119.673 90.3257 122.155 91.4479Z" fill="#08094A" fill-opacity="0.6"/>
<path d="M161.138 109.002C161.147 109.002 161.156 109.002 161.164 109.002C162.585 109.002 163.745 107.856 163.758 106.432C163.792 103.007 165.119 99.6223 166.227 97.3864C167.28 95.2623 168.793 93.544 170.604 92.4169C173.419 90.6652 174.077 91.7069 174.466 92.323C174.555 92.4648 174.638 92.6038 174.716 92.7444C175.373 93.918 175.098 95.0164 174.875 95.5658C174.451 96.6109 173.581 97.3967 172.488 97.7235C171.111 98.135 169.755 98.6143 168.456 99.1488C167.13 99.6943 166.497 101.212 167.042 102.537C167.588 103.863 169.105 104.494 170.429 103.95C171.57 103.48 172.763 103.059 173.975 102.697C176.586 101.916 178.668 100.028 179.686 97.5159C180.66 95.1125 180.5 92.4494 179.248 90.2127C179.129 89.9997 179 89.7825 178.858 89.5564C176.475 85.7842 172.362 85.2068 167.861 88.0098C165.231 89.6469 163.057 92.0924 161.577 95.0819C160.228 97.8036 158.61 101.974 158.567 106.381C158.554 107.814 159.705 108.988 161.138 109.002Z" fill="#08094A" fill-opacity="0.6"/>
<path d="M228.206 112.942C227.288 111.842 225.65 111.694 224.55 112.614C223.45 113.533 223.304 115.17 224.223 116.27L228.54 121.436C225.611 124.567 220.233 131.23 220.485 137.72C220.632 141.504 222.476 145.488 225.967 149.562C227.49 151.342 229.707 152.363 232.048 152.363C234.389 152.363 236.606 151.342 238.129 149.562C241.62 145.486 243.464 141.502 243.611 137.72C243.863 131.23 238.485 124.567 235.556 121.436L239.872 116.27C240.791 115.17 240.645 113.533 239.545 112.614C238.444 111.694 236.808 111.842 235.89 112.942L232.049 117.539L228.206 112.942ZM238.424 137.518C238.298 140.738 236.051 144.009 234.186 146.186C233.642 146.822 232.883 147.172 232.047 147.172C231.212 147.172 230.453 146.822 229.908 146.185C228.044 144.01 225.796 140.739 225.67 137.518C225.512 133.437 229.324 128.299 232.049 125.294C234.776 128.293 238.582 133.421 238.424 137.518Z" fill="#08094A" fill-opacity="0.6"/>
<path d="M136.921 151.026C136.92 151.026 136.919 151.026 136.919 151.026C133.574 151.026 130.911 151.792 129.003 153.304C126.129 155.579 125.033 159.928 124.618 162.703L121.691 162.739C120.258 162.758 119.111 163.933 119.129 165.367C119.147 166.789 120.304 167.93 121.723 167.93C121.734 167.93 121.745 167.93 121.756 167.93L123.889 167.903L123.536 170.007C123.299 171.42 124.252 172.758 125.666 172.996C125.811 173.02 125.956 173.032 126.098 173.032C127.343 173.032 128.442 172.134 128.655 170.866L129.14 167.98C129.187 167.98 129.23 167.981 129.278 167.981C132.09 167.981 136.456 167.538 139.1 165.088C140.885 163.434 142.051 160.92 142.565 157.613C142.821 155.962 142.345 154.287 141.258 153.02C140.171 151.753 138.59 151.026 136.921 151.026ZM137.436 156.817C137.115 158.879 136.453 160.465 135.572 161.28C134.43 162.338 131.965 162.711 129.869 162.775C130.25 160.719 130.995 158.346 132.225 157.374C133.167 156.627 134.834 156.216 136.919 156.216H136.92C137.119 156.216 137.245 156.315 137.316 156.398C137.387 156.481 137.466 156.621 137.436 156.817Z" fill="#08094A" fill-opacity="0.6"/>
<path d="M160.635 153.304C158.725 151.792 156.062 151.026 152.719 151.026C152.718 151.026 152.717 151.026 152.716 151.026C151.046 151.026 149.465 151.753 148.379 153.021C147.292 154.289 146.816 155.963 147.072 157.613C147.585 160.918 148.751 163.433 150.537 165.088C153.182 167.538 157.547 167.981 160.359 167.981C160.407 167.981 160.451 167.98 160.497 167.98L160.981 170.866C161.194 172.134 162.293 173.033 163.539 173.033C163.681 173.033 163.825 173.021 163.971 172.997C165.384 172.759 166.338 171.421 166.101 170.007L165.748 167.904L167.881 167.93C167.892 167.93 167.903 167.93 167.914 167.93C169.332 167.93 170.49 166.789 170.508 165.367C170.526 163.934 169.379 162.758 167.946 162.74L165.02 162.703C164.604 159.929 163.508 155.579 160.635 153.304ZM154.065 161.281C153.183 160.463 152.521 158.878 152.202 156.817C152.171 156.62 152.249 156.481 152.32 156.398C152.392 156.315 152.518 156.216 152.718 156.216C154.803 156.216 156.47 156.627 157.412 157.374C158.634 158.34 159.379 160.719 159.763 162.78C157.674 162.719 155.214 162.346 154.065 161.281Z" fill="#08094A" fill-opacity="0.6"/>
<defs>
<filter id="filter0_d_208_5" x="0.700001" y="0" width="428.461" height="458.742" filterUnits="userSpaceOnUse" color-interpolation-filters="sRGB">
<feFlood flood-opacity="0" result="BackgroundImageFix"/>
<feColorMatrix in="SourceAlpha" type="matrix" values="0 0 0 0 0 0 0 0 0 0 0 0 0 0 0 0 0 0 127 0" result="hardAlpha"/>
<feOffset dx="10" dy="30"/>
<feGaussianBlur stdDeviation="10.65"/>
<feComposite in2="hardAlpha" operator="out"/>
<feColorMatrix type="matrix" values="0 0 0 0 0 0 0 0 0 0 0 0 0 0 0 0 0 0 0.25 0"/>
<feBlend mode="normal" in2="BackgroundImageFix" result="effect1_dropShadow_208_5"/>
<feBlend mode="normal" in="SourceGraphic" in2="effect1_dropShadow_208_5" result="shape"/>
</filter>
<linearGradient id="paint0_linear_208_5" x1="204.931" y1="0" x2="204.931" y2="407.442" gradientUnits="userSpaceOnUse">
<stop stop-color="#A5C3FF"/>
<stop offset="0.51" stop-color="#9385FF"/>
<stop offset="1" stop-color="#421FFF" stop-opacity="0.68"/>
</linearGradient>
</defs>
</svg>
