<?xml version="1.0" encoding="UTF-8"?>
<svg id="_Слой_1" data-name="Слой 1" xmlns="http://www.w3.org/2000/svg" viewBox="0 0 362.37 359.69">
  <defs>
    <style>
      .cls-1 {
        fill: #fff;
      }

      .cls-2, .cls-3, .cls-4 {
        fill: none;
        stroke: #fff;
        stroke-linecap: round;
      }

      .cls-2, .cls-4 {
        stroke-miterlimit: 10;
      }

      .cls-3 {
        stroke-linejoin: round;
        stroke-width: 2px;
      }

      .cls-4 {
        stroke-width: 3px;
      }
    </style>
  </defs>
  <path class="cls-1" d="m44.77,44.74c-10.89,10.36-11.77,9.82-16.85,15.45-9.51,10.53-14.06,20.88-17.62,29.15C6.66,97.8.49,112.54.08,132.4c-.21,10.37-.4,19.36,4.34,29.79,5.85,12.88,15.9,20.67,22.38,25.7,2.92,2.26,7.05,4.69,15.32,9.53,3.84,2.25,7.4,4.24,12.34,4.85,3.63.45,5.9-.1,7.15-.51,1.04-.34,3.71-1.35,6.06-3.89,1.52-1.64,2.84-3.07,2.76-4.85-.11-2.33-2.57-3.57-6.36-6.45-2.9-2.2-5.43-4.86-8.15-7.28-7-6.23-13.44-13.51-12.96-14.04.18-.2,1.29.57,7.21,4.91,7.71,5.66,11.56,8.48,12.89,9.51,9.92,7.65,10.96,9.21,14.49,9.57.43.05,5.77.52,10.17-2.81.55-.41,6.14-4.76,6.64-10.47.07-.83.09-2.32,1.13-3.13,1.13-.88,2.71-.38,3.89-.19,4.73.74,9.13-2.63,11.15-4.17,1.58-1.21,6.55-5.01,5.87-8.94-.33-1.88-1.78-2.77-5.87-5.87-3.15-2.39-6.18-4.94-9.28-7.4-7.02-5.6-12.28-12.19-11.83-12.68.43-.47,6.45,4.11,17.28,12.34,0,0,3.4,2.58,9.33,6.17,5.28,3.19,6.58,3.48,7.77,3.53,5.17.22,9.13-4.14,10.55-5.7,2.13-2.34,4.18-4.6,4.26-7.66.02-1.04-.17-2.33.68-3.23.86-.91,2.13-.73,3.45-.89,2.39-.29,3.99-1.57,6.25-3.37,3.08-2.45,7.72-7.99,6.36-12.84-.3-1.07-.65-1.24-3.29-4.68-1.95-2.53-3.73-5.19-5.63-7.76-2.2-2.99-15.9-21.54-14.98-22.3.56-.46,7.12,5.32,12.51,12.77,3.06,4.22,6.54,8.16,9.28,12.6,1.52,2.45,2.59,4.45,4.68,4.85,2.95.57,5.84-2.43,7.91-4.6,1.63-1.7,4.43-4.61,5.19-9.02.68-3.93-.85-5.67.68-7.57,1.18-1.46,2.37-.8,5.96-2.55,1.39-.68,3.78-1.85,5.7-4.17.32-.39,2.71-3.34,2.98-7.15.26-3.67-1.61-5.91-6.98-13.45-6.12-8.59-2.87-4.53-9.11-13.11-6.7-9.21-9.17-12.14-8.85-12.43.52-.47,7.88,6.55,13.49,12.62,5.97,6.46,8.96,9.68,10.17,11.63,2.02,3.26,2.83,5.49,4.85,5.79,3.14.47,6.4-4.13,7.74-6.72,1.85-3.57,1.9-6.88,1.91-9.57,0-1.37-.06-5.81-2.68-13.4-.92-2.66-2.87-8.21-6.89-14.43-7.91-12.23-18.46-18.74-22.09-20.81C152.53-.33,137.72-.15,129.02.06c-14.68.36-25.43,4.37-33.57,7.4-7.53,2.81-18.08,6.74-29.11,15.57-7.83,6.27-7.37,8.18-21.57,21.7Z"/>
  <path class="cls-1" d="m117.4,172.28c.26-1.75,3.03-1.46,4.85-4.21,1.45-2.2.66-3.86,2.17-4.85,1.13-.74,2-.08,4.13-.17,3.85-.17,6.72-2.59,7.53-3.28,3.24-2.74,2.77-5.17,4.64-5.49,2.38-.41,5.57,3.13,6.68,6.64.92,2.92-.22,3.82.83,7.53.56,1.98,1.44,5.11,3.57,5.74,2.11.63,3.26-1.86,6.64-1.91.25,0,3.25-.01,5.36,1.98,2.68,2.53.96,5.49,3.77,10.53,1.13,2.02,1.89,3.39,3.51,4.09,2.29.98,3.7-.48,8.83-.3,3.23.11,4.29.75,4.68,1.02,1.74,1.18,2.53,3.16,2.89,4.09.94,2.37.41,3.32,1.53,4.6.75.85,1.61,1.15,2.98,1.62,3.26,1.13,4.5.15,5.89,1.35.46.39.9,1.49,1.77,3.67.67,1.67,1.03,2.79,1.19,3.23,1.33,3.72,4.1,3.87,5.96,6.98,1.66,2.78.08,3.74,1.11,11.23.66,4.83,1.69,7.22,1.11,7.49-.7.32-2.54-2.97-5.96-7.4-1.64-2.13-5.92-7.68-10.89-11.49-2.47-1.89-3.59-2.18-13.19-6.21,0,0-9.56-4.01-22.3-9.7-7.23-3.23-10.92-4.89-14.38-6.81-4.11-2.28-7.82-4.9-15.23-10.13,0,0-1.26-.89-6.47-5.62-2.47-2.24-3.35-3.16-3.19-4.21Z"/>
  <path class="cls-1" d="m147.32,145.77c.7-1.38,2.33-1.25,4.51-2.21,2.19-.97,3.42-2.36,5.28-4.47.65-.74,2.79-3.25,4.4-7.21,1.76-4.31.82-5.23,2.49-7.15,1.81-2.08,3.14-1.27,6.19-3.83,2.75-2.31,2.76-3.89,4.28-4.02,1.39-.12,2.4,1.12,5.81,4.98l4.79,5.36c15.02,19.06,17.6,20.76,24.77,31.6,9.1,13.77,14.45,25.41,19.66,36.77,3.97,8.64,5.95,12.97,7.96,18.7,2.65,7.58,3.49,11.9,7.06,19.4,3.04,6.39,4.63,9.63,7.83,12.26,4.77,3.91,12.41,6.58,19.49,4.17,1.7-.58,7.83-2.66,8.94-7.15.59-2.4-.39-4.95,1.28-6.3.72-.58,1.79-.82,2.64-.51,1.88.69,2.11,3.91,2.21,5.28.21,2.88-.61,5.23-1.19,6.55-2.19,4.95-6.41,7.38-7.57,8-1.11.59-4.91,2.62-9.11,2.81-1.05.05-2.53,0-4,.94-1.13.72-1.33,1.43-2.64,2.13-.38.2-1.73.92-3.15.77-2.43-.27-2.41-2.8-5.45-4.34-2.3-1.16-3.19-.16-5.19-1.53-1.78-1.22-1.37-2.22-2.98-3.49-2.6-2.05-4.82-.36-6.89-1.96-2.37-1.82-.33-4.68-2.47-8.6-1.67-3.06-3.5-2.38-8.68-7.06-3.29-2.97-4.96-4.48-5.7-7.06-1.2-4.19,1.56-5.97.17-8.85-1.79-3.72-6.96-2-9.79-5.87-2.81-3.85,1.04-7.29-1.36-11.83-2.97-5.6-10.45-3.42-13.45-9.02-2.55-4.78,1.76-8.5-.85-12.09-3.52-4.83-12.96-.25-16.68-5.53-2.06-2.92-1.82-8.09-1.79-8.68.17-3.11,1.17-4.8.09-6.81-.74-1.38-2.39-2.77-4.26-2.89-3.07-.21-4.23,3.17-7.4,2.81-.27-.03-2.16-.24-3.06-1.62-1.23-1.88.62-4.08-.85-6.81-.26-.49-.56-1.04-1.19-1.45-1.8-1.17-4.55-.07-6.64.77-2.62,1.05-3.05,1.79-4.26,1.53-1.98-.43-2.94-2.91-3.06-3.23-.25-.68-.77-2.07-.17-3.23Z"/>
  <path class="cls-3" d="m194.89,83.3c1.32,6.11,3.19,15.19,5.11,26.3,3.62,20.95,3.01,23.64,6.3,29.36,8.72,15.19,26.79,20.26,30.47,21.2,7.45,1.9,15.89,2.2,25.79,2.55,9.53.34,13.66-.19,19.91,2.3,2.2.87,9.16,3.74,14.3,10.72,3.03,4.13,4.65,8.64,6.13,19.15,1.12,8,2.41,23.88,1.85,37.28"/>
  <path class="cls-3" d="m230.23,300.3c-6,.77-14.74,1.34-25.13.02-11.51-1.46-19.08-2.43-26.11-7.97-12.65-9.98-14.12-27.36-14.34-30-.8-9.41,1.99-12.36.11-23.55-.52-3.1-1.63-9.42-5.36-16.6-1.76-3.39-8.75-16.83-23.12-22.36-3.85-1.48-5.93-1.51-18.2-2.55-12.3-1.04-22.16-2.02-28.38-2.67"/>
  <path class="cls-4" d="m180.85,105.34c4.74,9.16,10.19,12.91,14.3,14.64,6.5,2.73,9.63.39,19.4,3.06,4.55,1.24,11.35,3.1,17.02,8.51,5.87,5.6,7.71,12.31,10.55,23.15,2.97,11.33,1.44,12.64,3.74,20.77.7,2.48,4.45,15.06,14.64,25.87,9.03,9.58,11.3,8.35,31.32,23.49,3.96,2.99,9.22,4.72,17.7,12.26,9.09,8.08,11.15,10.39,12.6,13.96,2.15,5.3.69,7.81.34,18.72-.32,10-.59,18.78,2.72,28.6,1.31,3.89,4.28,12.31,12.26,19.4,3.2,2.84,6.3,4.66,8.51,5.79"/>
  <path class="cls-4" d="m107.66,180.57c9.28,7.74,8.63,11.25,9.73,14.38,1.63,4.66,1.04,6.49,1.49,10.51,0,0,.2,2.6,1.42,6.79,1.39,4.78,4.94,10.98,10.26,16.06,8.06,7.69,17.26,10.02,21.71,11.15,4.78,1.21,7.89,1.58,7.89,1.58,4.84.67,7.18.37,12.92,1.93,2.49.67,15.11,4.27,26.04,14.34,9.68,8.92,8.48,11.21,23.85,31.05,3.04,3.92,4.82,9.16,12.46,17.56,8.18,9,10.52,11.03,14.1,12.44,5.32,2.09,7.81.6,18.73.13,9.99-.43,18.77-.81,28.63,2.4,3.9,1.27,12.36,4.13,19.54,12.03,4.1,4.51,6.57,8.97,7.93,12.09"/>
  <path class="cls-2" d="m319.27,246.41c6.65-.22,15.55.46,18.6,1.56,4.16,1.51,7.95,3.09,11.23,7.74.87,1.23,2.9,3.19,4.34,9.36,1.8,7.71,2.12,13.02,2.55,16.6.59,4.97,2.04,11.98,5.87,20.43"/>
  <path class="cls-2" d="m249.05,316.77c-.2,6.65.51,15.55,1.62,18.6,1.52,4.16,3.11,7.94,7.78,11.21,1.24.86,3.2,2.89,9.38,4.31,7.71,1.78,13.02,2.08,16.6,2.5,4.97.58,11.99,2,20.44,5.81"/>
</svg>